<?xml version="1.0" encoding="UTF-8" standalone="no"?>
<!DOCTYPE svg PUBLIC "-//W3C//DTD SVG 1.1//EN" "http://www.w3.org/Graphics/SVG/1.1/DTD/svg11.dtd">
<svg width="100%" height="100%" viewBox="0 0 129 129" version="1.1" xmlns="http://www.w3.org/2000/svg" xmlns:xlink="http://www.w3.org/1999/xlink" xml:space="preserve" xmlns:serif="http://www.serif.com/" style="fill-rule:evenodd;clip-rule:evenodd;stroke-linejoin:round;stroke-miterlimit:2;">
    <g id="Réteg_1">
        <g>
            <path d="M46.73,58.62L49.04,58.62C49.77,58.62 50.35,58.02 50.33,57.29C50.3,56.33 50.25,55.63 50.18,55.26C49.42,51.29 46.05,48.41 42.18,48.41C40.05,48.41 38.01,49.32 36.45,50.98C34.91,52.63 34.08,54.84 34.1,57.23L34.1,83.66C34.1,86.79 31.58,89.77 28.59,90.16C28.3,90.2 28.01,90.22 27.72,90.22C25.8,90.22 24,89.37 22.79,87.88C21.57,86.39 21.1,84.44 21.48,82.53C21.99,79.98 24.07,77.98 26.65,77.55C27.01,77.49 27.37,77.46 27.73,77.46C28.22,77.46 28.71,77.52 29.18,77.63C29.3,77.66 29.42,77.67 29.54,77.67C30.42,77.67 31.16,76.91 31.16,76.01L31.16,74.23C31.16,73.4 30.79,72.82 30.18,72.69C29.38,72.51 28.55,72.42 27.74,72.42C26.97,72.42 26.2,72.5 25.44,72.66C20.64,73.65 16.92,77.72 16.39,82.56C16.03,85.85 17.04,89.01 19.24,91.46C21.41,93.88 24.51,95.27 27.75,95.27C28.27,95.27 28.8,95.23 29.33,95.16C34.33,94.49 38.43,90.36 39.08,85.35C39.14,84.88 39.17,84.39 39.17,83.85L39.17,61.7C39.17,59.94 39.16,58.01 39.17,56.97C39.23,54.68 40.83,53.45 42.31,53.45C43.45,53.45 44.85,54.18 45.32,56.24C45.36,56.44 45.39,56.83 45.46,57.47C45.53,58.14 46.09,58.65 46.76,58.65L46.73,58.62Z" style="fill:white;fill-rule:nonzero;"/>
            <path d="M110.79,87.16L107.65,87.16C105.73,87.22 103.94,85.62 103.8,83.7C103.78,83.45 103.77,82.15 103.78,81.89L103.78,76.41C103.75,68.8 103.81,50.72 103.74,43.36C103.24,34.6 91.8,31.49 86.9,38.71C85.83,40.27 85.29,42.17 85.31,44.06C85.31,56.91 85.33,76.44 85.33,89.29L85.33,97.51C85.4,99.74 85.35,101.36 83.56,102.64C80.97,104.5 77.12,102.42 77.24,99.24C77.24,83.13 77.21,46.52 77.2,30.02C77.26,28.21 76.89,26.36 75.94,24.79C71.24,16.89 59.2,20.04 58.93,29.21C58.91,32 58.93,36.74 58.93,39.54C58.94,54.12 58.94,74.34 58.96,88.89C58.96,89.16 58.96,90.48 58.94,90.71C58.41,95.7 50.85,95.66 50.34,90.69C50.29,87.65 50.3,69.81 50.3,64.81C50.3,64.09 49.71,63.5 48.99,63.5L46.69,63.5C45.97,63.5 45.38,64.08 45.38,64.8C45.37,70.43 45.4,87.48 45.38,90.23C45.76,102.41 63.51,102.41 63.93,90.26C63.93,75.14 63.95,54.7 63.96,39.54L63.96,29.6C63.8,25.35 69.43,23.68 71.58,27.34C72.07,28.12 72.18,29.11 72.14,30.01C72.17,46.87 72.03,83.67 72.14,100.16C73.42,110.91 88.56,111.3 90.37,100.61C90.54,99.67 90.44,98.42 90.47,97.5L90.47,89.28C90.47,77.04 90.49,57.66 90.49,45.42L90.49,43.88C90.65,38.74 98.06,38.54 98.48,43.65C98.5,50.58 98.48,69.22 98.48,76.4L98.48,81.88C98.46,82.88 98.47,84.15 98.66,85.13C99.44,89.3 103.38,92.51 107.63,92.44C108.11,92.45 109.17,92.42 109.69,92.44L110.78,92.44C111.69,92.44 112.44,91.7 112.44,90.79L112.44,88.81C112.44,87.89 111.7,87.15 110.78,87.16L110.79,87.16Z" style="fill:white;fill-rule:nonzero;"/>
        </g>
    </g>
</svg>
