<?xml version="1.0" encoding="UTF-8"?>
<svg id="Réteg_2" data-name="Réteg 2" xmlns="http://www.w3.org/2000/svg" viewBox="0 0 128.74 128.74">
  <defs>
    <style>
      .cls-1 {
        fill: #c4a140;
      }

      .cls-1, .cls-2 {
        stroke-width: 0px;
      }

      .cls-2 {
        fill: #fff;
      }
    </style>
  </defs>
  <g id="bckg">
    <rect class="cls-1" x="0" width="128.74" height="128.74" rx="22.41" ry="22.41"/>
  </g>
  <g id="Réteg_1" data-name="Réteg 1">
    <g>
      <path class="cls-2" d="m46.73,58.62h2.31c.73,0,1.31-.6,1.29-1.33-.03-.96-.08-1.66-.15-2.03-.76-3.97-4.13-6.85-8-6.85-2.13,0-4.17.91-5.73,2.57-1.54,1.65-2.37,3.86-2.35,6.25,0,.87,0,3.01,0,4.77v1.62s0,20.04,0,20.04c0,3.13-2.52,6.11-5.51,6.5-.29.04-.58.06-.87.06h0c-1.92,0-3.72-.85-4.93-2.34-1.22-1.49-1.69-3.44-1.31-5.35.51-2.55,2.59-4.55,5.17-4.98.36-.06.72-.09,1.08-.09.49,0,.98.06,1.45.17.12.03.24.04.36.04.88,0,1.62-.76,1.62-1.66v-1.78c0-.83-.37-1.41-.98-1.54-.8-.18-1.63-.27-2.44-.27-.77,0-1.54.08-2.3.24-4.8.99-8.52,5.06-9.05,9.9-.36,3.29.65,6.45,2.85,8.9,2.17,2.42,5.27,3.81,8.51,3.81.52,0,1.05-.04,1.58-.11,5-.67,9.1-4.8,9.75-9.81.06-.47.09-.96.09-1.5v-.26s0-19.95,0-19.95v-.09s0-1.85,0-1.85c0-1.76-.01-3.69,0-4.73.06-2.29,1.66-3.52,3.14-3.52,1.14,0,2.54.73,3.01,2.79.04.2.07.59.14,1.23.07.67.63,1.18,1.3,1.18Z"/>
      <path class="cls-2" d="m110.79,87.16c-.9,0-1.87,0-2.45,0h-.69c-1.92.06-3.71-1.54-3.85-3.46-.02-.25-.03-1.55-.02-1.81v-5.48c-.03-7.61.03-25.69-.04-33.05-.5-8.76-11.94-11.87-16.84-4.65-1.07,1.56-1.61,3.46-1.59,5.35,0,12.85.02,32.38.02,45.23,0,1.76,0,6.54,0,8.22.07,2.23.02,3.85-1.77,5.13-2.59,1.86-6.44-.22-6.32-3.4,0-16.11-.03-52.72-.04-69.22.06-1.81-.31-3.66-1.26-5.23-4.7-7.9-16.74-4.75-17.01,4.42-.02,2.79,0,7.53,0,10.33.01,14.58.01,34.8.03,49.35,0,.27,0,1.59-.02,1.82-.53,4.99-8.09,4.95-8.6-.02-.05-3.04-.04-20.88-.04-25.88,0-.72-.59-1.31-1.31-1.31h-2.3c-.72,0-1.31.58-1.31,1.3-.01,5.63.02,22.68,0,25.43.38,12.18,18.13,12.18,18.55.03,0-15.12.02-35.56.03-50.72,0-2.64,0-7.35,0-9.94-.16-4.25,5.47-5.92,7.62-2.26.49.78.6,1.77.56,2.67.03,16.86-.11,53.66,0,70.15,1.28,10.75,16.42,11.14,18.23.45.17-.94.07-2.19.1-3.11,0-1.69,0-6.49,0-8.22,0-12.24.02-31.62.02-43.86v-1.37s0-.17,0-.17c.16-5.14,7.57-5.34,7.99-.23.02,6.93,0,25.57,0,32.75v5.48c-.02,1-.01,2.27.18,3.25.78,4.17,4.72,7.38,8.97,7.31.48.01,1.54-.02,2.06,0h1.09c.91,0,1.66-.74,1.66-1.65v-1.98c0-.92-.74-1.66-1.66-1.65Z"/>
    </g>
  </g>
</svg>