<?xml version="1.0" encoding="UTF-8" standalone="no"?>
<svg
   id="Réteg_2"
   data-name="Réteg 2"
   viewBox="0 0 128.74 128.74"
   version="1.1"
   sodipodi:docname="sofar_dalapp_windows.svg"
   inkscape:version="1.3.2 (091e20e, 2023-11-25, custom)"
   inkscape:export-filename="sofar_dalapp_windows_48.png"
   inkscape:export-xdpi="35.793068"
   inkscape:export-ydpi="35.793068"
   xmlns:inkscape="http://www.inkscape.org/namespaces/inkscape"
   xmlns:sodipodi="http://sodipodi.sourceforge.net/DTD/sodipodi-0.dtd"
   xmlns="http://www.w3.org/2000/svg"
   xmlns:svg="http://www.w3.org/2000/svg">
  <sodipodi:namedview
     id="namedview2"
     pagecolor="#ffffff"
     bordercolor="#666666"
     borderopacity="1.0"
     inkscape:showpageshadow="2"
     inkscape:pageopacity="0.0"
     inkscape:pagecheckerboard="0"
     inkscape:deskcolor="#d1d1d1"
     inkscape:zoom="6.3771941"
     inkscape:cx="64.370003"
     inkscape:cy="64.370003"
     inkscape:window-width="1920"
     inkscape:window-height="1017"
     inkscape:window-x="3832"
     inkscape:window-y="-8"
     inkscape:window-maximized="1"
     inkscape:current-layer="Réteg_2" />
  <defs
     id="defs1">
    <style
       id="style1">
      .cls-1 {
        fill: #c4a140;
      }

      .cls-1, .cls-2 {
        stroke-width: 0px;
      }

      .cls-2 {
        fill: #fff;
      }
    </style>
  </defs>
  <g
     id="bckg">
    <rect
       class="cls-1"
       x="0"
       width="128.74"
       height="128.74"
       rx="22.41"
       ry="22.41"
       id="rect1" />
  </g>
  <g
     id="Réteg_1"
     data-name="Réteg 1"
     transform="matrix(1.1067483,0,0,1.1067483,-6.8723801,-6.8702458)">
    <g
       id="g2">
      <path
         class="cls-2"
         d="m 46.73,58.62 h 2.31 c 0.73,0 1.31,-0.6 1.29,-1.33 -0.03,-0.96 -0.08,-1.66 -0.15,-2.03 -0.76,-3.97 -4.13,-6.85 -8,-6.85 -2.13,0 -4.17,0.91 -5.73,2.57 -1.54,1.65 -2.37,3.86 -2.35,6.25 0,0.87 0,3.01 0,4.77 v 1.62 c 0,0 0,20.04 0,20.04 0,3.13 -2.52,6.11 -5.51,6.5 -0.29,0.04 -0.58,0.06 -0.87,0.06 v 0 c -1.92,0 -3.72,-0.85 -4.93,-2.34 -1.22,-1.49 -1.69,-3.44 -1.31,-5.35 0.51,-2.55 2.59,-4.55 5.17,-4.98 0.36,-0.06 0.72,-0.09 1.08,-0.09 0.49,0 0.98,0.06 1.45,0.17 0.12,0.03 0.24,0.04 0.36,0.04 0.88,0 1.62,-0.76 1.62,-1.66 v -1.78 c 0,-0.83 -0.37,-1.41 -0.98,-1.54 -0.8,-0.18 -1.63,-0.27 -2.44,-0.27 -0.77,0 -1.54,0.08 -2.3,0.24 -4.8,0.99 -8.52,5.06 -9.05,9.9 -0.36,3.29 0.65,6.45 2.85,8.9 2.17,2.42 5.27,3.81 8.51,3.81 0.52,0 1.05,-0.04 1.58,-0.11 5,-0.67 9.1,-4.8 9.75,-9.81 0.06,-0.47 0.09,-0.96 0.09,-1.5 v -0.26 c 0,0 0,-19.95 0,-19.95 v -0.09 c 0,0 0,-1.85 0,-1.85 0,-1.76 -0.01,-3.69 0,-4.73 0.06,-2.29 1.66,-3.52 3.14,-3.52 1.14,0 2.54,0.73 3.01,2.79 0.04,0.2 0.07,0.59 0.14,1.23 0.07,0.67 0.63,1.18 1.3,1.18 z"
         id="path1" />
      <path
         class="cls-2"
         d="m 110.79,87.16 c -0.9,0 -1.87,0 -2.45,0 h -0.69 c -1.92,0.06 -3.71,-1.54 -3.85,-3.46 -0.02,-0.25 -0.03,-1.55 -0.02,-1.81 V 76.41 C 103.75,68.8 103.81,50.72 103.74,43.36 103.24,34.6 91.8,31.49 86.9,38.71 c -1.07,1.56 -1.61,3.46 -1.59,5.35 0,12.85 0.02,32.38 0.02,45.23 0,1.76 0,6.54 0,8.22 0.07,2.23 0.02,3.85 -1.77,5.13 -2.59,1.86 -6.44,-0.22 -6.32,-3.4 0,-16.11 -0.03,-52.72 -0.04,-69.22 0.06,-1.81 -0.31,-3.66 -1.26,-5.23 -4.7,-7.9 -16.74,-4.75 -17.01,4.42 -0.02,2.79 0,7.53 0,10.33 0.01,14.58 0.01,34.8 0.03,49.35 0,0.27 0,1.59 -0.02,1.82 -0.53,4.99 -8.09,4.95 -8.6,-0.02 C 50.29,87.65 50.3,69.81 50.3,64.81 50.3,64.09 49.71,63.5 48.99,63.5 h -2.3 c -0.72,0 -1.31,0.58 -1.31,1.3 -0.01,5.63 0.02,22.68 0,25.43 0.38,12.18 18.13,12.18 18.55,0.03 0,-15.12 0.02,-35.56 0.03,-50.72 0,-2.64 0,-7.35 0,-9.94 -0.16,-4.25 5.47,-5.92 7.62,-2.26 0.49,0.78 0.6,1.77 0.56,2.67 0.03,16.86 -0.11,53.66 0,70.15 1.28,10.75 16.42,11.14 18.23,0.45 0.17,-0.94 0.07,-2.19 0.1,-3.11 0,-1.69 0,-6.49 0,-8.22 0,-12.24 0.02,-31.62 0.02,-43.86 v -1.37 c 0,0 0,-0.17 0,-0.17 0.16,-5.14 7.57,-5.34 7.99,-0.23 0.02,6.93 0,25.57 0,32.75 v 5.48 c -0.02,1 -0.01,2.27 0.18,3.25 0.78,4.17 4.72,7.38 8.97,7.31 0.48,0.01 1.54,-0.02 2.06,0 h 1.09 c 0.91,0 1.66,-0.74 1.66,-1.65 v -1.98 c 0,-0.92 -0.74,-1.66 -1.66,-1.65 z"
         id="path2" />
    </g>
  </g>
</svg>
